<svg width="48" height="45" viewBox="0 0 48 45" fill="none" xmlns="http://www.w3.org/2000/svg">
<path d="M23.8817 0C10.9889 0 0.440186 10.1431 0.440186 22.6355C0.440186 33.9307 9.0198 43.3057 20.2249 45V29.1867H14.2707V22.6355H20.2249V17.6431C20.2249 11.9729 23.7177 8.85542 29.0858 8.85542C31.6409 8.85542 34.3132 9.28464 34.3132 9.28464V14.8645H31.3596C28.4528 14.8645 27.5386 16.6039 27.5386 18.3886V22.6355H34.0554L33.0005 29.1867H27.5386V45C33.0625 44.1593 38.0925 41.4432 41.7206 37.342C45.3487 33.2408 47.3358 28.0248 47.3233 22.6355C47.3233 10.1431 36.7746 0 23.8817 0Z" fill="#cacaca"/>
</svg>
